<svg viewBox="0 0.079 313.031 313.031" width="313.031" height="313.031" fill="#025389" xmlns="http://www.w3.org/2000/svg">
  <path d="m 1720,2775.9 -190.82,-190.82 -85.55,85.54 192.19,190.82 z m -360.59,-23.67 -51.32,51.32 c -88.6,72.82 -176.76,72.82 -264.5,0 l -51.32,-51.32 -190.821,190.82 372.421,376.36 376.36,-376.36 z m 255.32,-251.37 190.82,190.82 84.22,-85.55 -190.82,-190.82 z m 169.76,-173.71 190.82,194.76 372.42,-373.75 -372.42,-376.36 -190.82,188.2 51.33,51.33 c 72.81,88.59 72.81,176.76 0,264.49 z M 715.898,2861.44 906.719,2670.62 822.5,2585.08 631.68,2775.9 Z m -339.527,-343.47 190.82,-190.82 -51.332,-51.33 c -72.808,-87.73 -72.808,-175.9 0,-264.49 L 567.191,1960 376.371,1771.8 0,2145.55 Z m 276.359,-102.66 -192.14,190.82 85.539,85.55 190.82,-190.82 z m -21.05,-897.5 190.82,190.82 84.219,-85.54 -190.821,-190.83 z m 105.269,275.04 -190.82,-190.82 -85.539,85.55 192.14,190.82 z m 306.641,-306.64 c 87.74,-71.87 175.9,-71.87 264.5,0 l 51.32,52.66 190.82,-192.15 -376.36,-375.04 -372.421,375.04 190.821,192.15 z m 592.19,-53.95 -192.15,190.83 85.55,85.54 190.82,-190.82 z m -21.05,360.59 84.22,85.55 190.82,-190.82 -84.22,-85.55 z" transform="matrix(0.133333, 0, 0, -0.133333, 0, 442.666656)"/>
  <path d="m 1748.95,2187.66 c 24.57,-28.09 24.57,-56.14 0,-84.22 l -530.32,-531.68 c -28.08,-23.67 -56.56,-23.67 -85.54,0 l -530.36,531.68 c -24.57,28.08 -24.57,56.13 0,84.22 l 527.7,531.68 c 28.09,21.05 56.56,21.05 85.55,0 z" transform="matrix(0.133333, 0, 0, -0.133333, 0, 442.666656)"/>
</svg>